<svg width="40" height="25" viewBox="0 0 40 25" fill="none" xmlns="http://www.w3.org/2000/svg">
<path fill-rule="evenodd" clip-rule="evenodd" d="M5 0C2.23853 0 0 2.23853 0 5V15C0 17.7615 2.23853 20 5 20H17.1133L20 25L22.8867 20H35C37.7615 20 40 17.7615 40 15V5C40 2.23853 37.7615 0 35 0H5Z" fill="#5A5AA6"/>
<path d="M8.778 15.054C8.31 14.99 7.87 14.862 7.458 14.67C7.05 14.478 6.702 14.24 6.414 13.956L6.87 13.278C6.91 13.218 6.962 13.17 7.026 13.134C7.094 13.094 7.164 13.074 7.236 13.074C7.324 13.074 7.418 13.106 7.518 13.17C7.618 13.23 7.732 13.302 7.86 13.386C7.988 13.47 8.134 13.554 8.298 13.638C8.462 13.722 8.656 13.784 8.88 13.824L9.108 11.136C8.824 11.056 8.542 10.962 8.262 10.854C7.986 10.746 7.736 10.604 7.512 10.428C7.292 10.248 7.114 10.022 6.978 9.75C6.842 9.478 6.774 9.138 6.774 8.73C6.774 8.426 6.834 8.13 6.954 7.842C7.078 7.55 7.256 7.29 7.488 7.062C7.72 6.834 8.006 6.646 8.346 6.498C8.686 6.35 9.076 6.266 9.516 6.246L9.582 5.49C9.59 5.394 9.63 5.308 9.702 5.232C9.774 5.156 9.868 5.118 9.984 5.118H10.53L10.428 6.3C10.852 6.368 11.218 6.488 11.526 6.66C11.834 6.832 12.102 7.026 12.33 7.242L11.97 7.788C11.914 7.868 11.858 7.928 11.802 7.968C11.746 8.008 11.678 8.028 11.598 8.028C11.538 8.028 11.466 8.01 11.382 7.974C11.302 7.934 11.208 7.888 11.1 7.836C10.996 7.78 10.88 7.724 10.752 7.668C10.624 7.612 10.482 7.566 10.326 7.53L10.116 10.014C10.404 10.102 10.688 10.2 10.968 10.308C11.252 10.412 11.506 10.548 11.73 10.716C11.958 10.884 12.142 11.094 12.282 11.346C12.422 11.594 12.492 11.906 12.492 12.282C12.492 12.654 12.43 13.004 12.306 13.332C12.182 13.656 12 13.944 11.76 14.196C11.524 14.444 11.232 14.646 10.884 14.802C10.536 14.958 10.138 15.052 9.69 15.084L9.618 15.966C9.61 16.058 9.57 16.142 9.498 16.218C9.426 16.298 9.332 16.338 9.216 16.338H8.67L8.778 15.054ZM11.088 12.51C11.088 12.358 11.06 12.226 11.004 12.114C10.952 11.998 10.876 11.896 10.776 11.808C10.68 11.72 10.566 11.644 10.434 11.58C10.302 11.516 10.158 11.458 10.002 11.406L9.798 13.842C10.222 13.786 10.542 13.644 10.758 13.416C10.978 13.184 11.088 12.882 11.088 12.51ZM8.172 8.586C8.172 8.738 8.198 8.872 8.25 8.988C8.302 9.104 8.374 9.208 8.466 9.3C8.562 9.388 8.674 9.468 8.802 9.54C8.93 9.608 9.07 9.67 9.222 9.726L9.408 7.506C9.188 7.534 9 7.582 8.844 7.65C8.688 7.714 8.56 7.794 8.46 7.89C8.36 7.986 8.286 8.094 8.238 8.214C8.194 8.33 8.172 8.454 8.172 8.586ZM14.5749 13.89H16.3329V8.832C16.3329 8.636 16.3389 8.43 16.3509 8.214L15.1029 9.258C15.0509 9.302 14.9969 9.332 14.9409 9.348C14.8889 9.364 14.8369 9.372 14.7849 9.372C14.7049 9.372 14.6309 9.356 14.5629 9.324C14.4989 9.288 14.4509 9.248 14.4189 9.204L13.9509 8.562L16.5969 6.312H17.8149V13.89H19.3749V15H14.5749V13.89ZM26.5819 10.662C26.5819 11.418 26.4999 12.076 26.3359 12.636C26.1759 13.192 25.9519 13.652 25.6639 14.016C25.3799 14.38 25.0419 14.652 24.6499 14.832C24.2619 15.008 23.8419 15.096 23.3899 15.096C22.9379 15.096 22.5179 15.008 22.1299 14.832C21.7459 14.652 21.4119 14.38 21.1279 14.016C20.8439 13.652 20.6219 13.192 20.4619 12.636C20.3019 12.076 20.2219 11.418 20.2219 10.662C20.2219 9.902 20.3019 9.244 20.4619 8.688C20.6219 8.132 20.8439 7.672 21.1279 7.308C21.4119 6.944 21.7459 6.674 22.1299 6.498C22.5179 6.318 22.9379 6.228 23.3899 6.228C23.8419 6.228 24.2619 6.318 24.6499 6.498C25.0419 6.674 25.3799 6.944 25.6639 7.308C25.9519 7.672 26.1759 8.132 26.3359 8.688C26.4999 9.244 26.5819 9.902 26.5819 10.662ZM25.0519 10.662C25.0519 10.034 25.0059 9.514 24.9139 9.102C24.8219 8.69 24.6979 8.362 24.5419 8.118C24.3899 7.874 24.2139 7.704 24.0139 7.608C23.8139 7.508 23.6059 7.458 23.3899 7.458C23.1779 7.458 22.9719 7.508 22.7719 7.608C22.5759 7.704 22.4019 7.874 22.2499 8.118C22.0979 8.362 21.9759 8.69 21.8839 9.102C21.7959 9.514 21.7519 10.034 21.7519 10.662C21.7519 11.29 21.7959 11.81 21.8839 12.222C21.9759 12.634 22.0979 12.962 22.2499 13.206C22.4019 13.45 22.5759 13.622 22.7719 13.722C22.9719 13.818 23.1779 13.866 23.3899 13.866C23.6059 13.866 23.8139 13.818 24.0139 13.722C24.2139 13.622 24.3899 13.45 24.5419 13.206C24.6979 12.962 24.8219 12.634 24.9139 12.222C25.0059 11.81 25.0519 11.29 25.0519 10.662ZM30.6328 6.228C31.0328 6.228 31.3928 6.286 31.7128 6.402C32.0368 6.514 32.3128 6.672 32.5408 6.876C32.7688 7.076 32.9428 7.312 33.0628 7.584C33.1868 7.856 33.2488 8.15 33.2488 8.466C33.2488 8.742 33.2168 8.986 33.1528 9.198C33.0928 9.406 33.0028 9.588 32.8828 9.744C32.7668 9.9 32.6228 10.032 32.4508 10.14C32.2828 10.248 32.0908 10.338 31.8748 10.41C32.3948 10.574 32.7828 10.824 33.0388 11.16C33.2948 11.496 33.4228 11.918 33.4228 12.426C33.4228 12.858 33.3428 13.24 33.1828 13.572C33.0228 13.904 32.8068 14.184 32.5348 14.412C32.2628 14.636 31.9468 14.806 31.5868 14.922C31.2308 15.038 30.8528 15.096 30.4528 15.096C30.0168 15.096 29.6368 15.046 29.3128 14.946C28.9888 14.846 28.7068 14.698 28.4668 14.502C28.2268 14.306 28.0228 14.066 27.8548 13.782C27.6868 13.498 27.5428 13.17 27.4228 12.798L28.0768 12.528C28.1888 12.48 28.3028 12.456 28.4188 12.456C28.5228 12.456 28.6148 12.478 28.6948 12.522C28.7788 12.566 28.8428 12.63 28.8868 12.714C28.9588 12.854 29.0368 12.992 29.1208 13.128C29.2088 13.264 29.3128 13.386 29.4328 13.494C29.5528 13.598 29.6928 13.684 29.8528 13.752C30.0168 13.816 30.2108 13.848 30.4348 13.848C30.6868 13.848 30.9068 13.808 31.0948 13.728C31.2828 13.644 31.4388 13.536 31.5628 13.404C31.6908 13.272 31.7848 13.126 31.8448 12.966C31.9088 12.802 31.9408 12.638 31.9408 12.474C31.9408 12.266 31.9188 12.078 31.8748 11.91C31.8308 11.738 31.7388 11.592 31.5988 11.472C31.4588 11.352 31.2568 11.258 30.9928 11.19C30.7328 11.122 30.3828 11.088 29.9428 11.088V10.032C30.3068 10.028 30.6088 9.994 30.8488 9.93C31.0888 9.866 31.2788 9.778 31.4188 9.666C31.5628 9.55 31.6628 9.412 31.7188 9.252C31.7748 9.092 31.8028 8.916 31.8028 8.724C31.8028 8.312 31.6908 8.002 31.4668 7.794C31.2428 7.582 30.9368 7.476 30.5488 7.476C30.1968 7.476 29.9048 7.57 29.6728 7.758C29.4408 7.942 29.2788 8.18 29.1868 8.472C29.1388 8.624 29.0728 8.734 28.9888 8.802C28.9048 8.866 28.7948 8.898 28.6588 8.898C28.5948 8.898 28.5268 8.892 28.4548 8.88L27.6748 8.742C27.7348 8.326 27.8508 7.962 28.0228 7.65C28.1948 7.334 28.4088 7.072 28.6648 6.864C28.9248 6.652 29.2208 6.494 29.5528 6.39C29.8888 6.282 30.2488 6.228 30.6328 6.228Z" fill="white"/>
</svg>
