<svg width="21" height="20" viewBox="0 0 21 20" fill="none" xmlns="http://www.w3.org/2000/svg">
							<mask id="mask0" mask-type="alpha" maskUnits="userSpaceOnUse" x="0" y="0" width="21" height="20">
							<path fill-rule="evenodd" clip-rule="evenodd" d="M0.146484 0H20.1402V19.9913H0.146484V0Z" fill="white"></path>
							</mask>
							<g mask="url(#mask0)">
							<path fill-rule="evenodd" clip-rule="evenodd" d="M10.1433 0C7.42835 0 7.08791 0.0115079 6.02164 0.0601587C4.9576 0.10869 4.23089 0.277698 3.59502 0.524841C2.93763 0.780278 2.38014 1.1221 1.82434 1.67786C1.26859 2.23365 0.926762 2.79115 0.671326 3.44853C0.424183 4.0844 0.255175 4.81111 0.206643 5.87516C0.157992 6.94143 0.146484 7.28187 0.146484 9.99687C0.146484 12.7118 0.157992 13.0523 0.206643 14.1185C0.255175 15.1826 0.424183 15.9093 0.671326 16.5452C0.926762 17.2025 1.26859 17.76 1.82434 18.3158C2.38014 18.8716 2.93763 19.2134 3.59502 19.4689C4.23089 19.716 4.9576 19.885 6.02164 19.9335C7.08791 19.9822 7.42835 19.9937 10.1433 19.9937C12.8583 19.9937 13.1987 19.9822 14.265 19.9335C15.3291 19.885 16.0558 19.716 16.6916 19.4689C17.349 19.2134 17.9065 18.8716 18.4623 18.3158C19.0181 17.76 19.3599 17.2025 19.6154 16.5452C19.8625 15.9093 20.0315 15.1826 20.08 14.1185C20.1287 13.0523 20.1402 12.7118 20.1402 9.99687C20.1402 7.28187 20.1287 6.94143 20.08 5.87516C20.0315 4.81111 19.8625 4.0844 19.6154 3.44853C19.3599 2.79115 19.0181 2.23365 18.4623 1.67786C17.9065 1.1221 17.349 0.780278 16.6916 0.524841C16.0558 0.277698 15.3291 0.10869 14.265 0.0601587C13.1987 0.0115079 12.8583 0 10.1433 0ZM10.1434 1.80078C12.8126 1.80078 13.1288 1.81098 14.183 1.85907C15.1576 1.90352 15.687 2.06638 16.0392 2.20328C16.5058 2.38463 16.8389 2.60126 17.1887 2.9511C17.5385 3.3009 17.7551 3.63392 17.9365 4.10054C18.0734 4.45281 18.2362 4.98213 18.2807 5.95681C18.3288 7.01094 18.339 7.32713 18.339 9.99642C18.339 12.6657 18.3288 12.9819 18.2807 14.036C18.2362 15.0107 18.0734 15.54 17.9365 15.8922C17.7551 16.3589 17.5385 16.6919 17.1887 17.0417C16.8389 17.3915 16.5058 17.6082 16.0392 17.7895C15.687 17.9264 15.1576 18.0893 14.183 18.1337C13.129 18.1818 12.8128 18.192 10.1434 18.192C7.4739 18.192 7.15779 18.1818 6.10379 18.1337C5.1291 18.0893 4.59978 17.9264 4.24752 17.7895C3.78089 17.6082 3.44787 17.3915 3.09807 17.0417C2.74827 16.6919 2.5316 16.3589 2.35025 15.8922C2.21335 15.54 2.05049 15.0107 2.00605 14.036C1.95795 12.9819 1.94775 12.6657 1.94775 9.99642C1.94775 7.32713 1.95795 7.01094 2.00605 5.95681C2.05049 4.98213 2.21335 4.45281 2.35025 4.10054C2.5316 3.63392 2.74823 3.3009 3.09807 2.9511C3.44787 2.60126 3.78089 2.38463 4.24752 2.20328C4.59978 2.06638 5.1291 1.90352 6.10379 1.85907C7.15791 1.81098 7.4741 1.80078 10.1434 1.80078Z" fill="#DCDADC"></path>
							</g>
							<path fill-rule="evenodd" clip-rule="evenodd" d="M9.82494 13.6694C7.97459 13.6694 6.47461 12.1694 6.47461 10.3191C6.47461 8.46873 7.97459 6.96875 9.82494 6.96875C11.6753 6.96875 13.1752 8.46873 13.1752 10.3191C13.1752 12.1694 11.6753 13.6694 9.82494 13.6694ZM9.82342 5.15625C6.97288 5.15625 4.66211 7.46702 4.66211 10.3176C4.66211 13.1681 6.97288 15.4788 9.82342 15.4788C12.6739 15.4788 14.9847 13.1681 14.9847 10.3176C14.9847 7.46702 12.6739 5.15625 9.82342 5.15625Z" fill="#DCDADC"></path>
							<path fill-rule="evenodd" clip-rule="evenodd" d="M16.9224 4.50979C16.9224 5.2228 16.3447 5.80078 15.6321 5.80078C14.9195 5.80078 14.3418 5.2228 14.3418 4.50979C14.3418 3.79677 14.9195 3.21875 15.6321 3.21875C16.3447 3.21875 16.9224 3.79677 16.9224 4.50979Z" fill="#DCDADC"></path>
							</svg>