<svg width="25" height="20" viewBox="0 0 25 20" fill="none" xmlns="http://www.w3.org/2000/svg">
							<path fill-rule="evenodd" clip-rule="evenodd" d="M7.92926 19.9216C17.2246 19.9216 22.3108 12.2549 22.3108 5.61765C22.3108 5.40196 22.3108 5.18627 22.301 4.97059C23.2867 4.26471 24.1443 3.37255 24.8244 2.36275C23.9175 2.76471 22.9417 3.02941 21.9165 3.15686C22.9614 2.53922 23.7598 1.54902 24.1443 0.372549C23.1684 0.95098 22.0841 1.36275 20.9308 1.58824C20.0043 0.607843 18.6933 0 17.2443 0C14.4547 0 12.1875 2.2549 12.1875 5.02941C12.1875 5.42157 12.2368 5.80392 12.3157 6.17647C8.11655 5.97059 4.39055 3.96078 1.89669 0.921569C1.46298 1.66667 1.21655 2.52941 1.21655 3.45098C1.21655 5.19608 2.11355 6.73529 3.46398 7.63725C2.63598 7.60784 1.85726 7.38235 1.17712 7.0098C1.17712 7.02941 1.17712 7.04902 1.17712 7.07843C1.17712 9.5098 2.92183 11.549 5.22841 12.0098C4.80455 12.1275 4.36098 12.1863 3.89769 12.1863C3.57241 12.1863 3.25698 12.1569 2.95141 12.098C3.59212 14.098 5.46498 15.549 7.67298 15.5882C5.93812 16.9412 3.75969 17.7451 1.39398 17.7451C0.989835 17.7451 0.585692 17.7255 0.191406 17.6765C2.41912 19.0882 5.08055 19.9216 7.92926 19.9216Z" fill="#DCDADC"></path>
							</svg>