<svg width="25" height="17" viewBox="0 0 25 17" fill="none" xmlns="http://www.w3.org/2000/svg">
    <path fill-rule="evenodd" clip-rule="evenodd" d="M9.62207 12.0894V4.91406L15.9451 8.50189L9.62207 12.0894ZM23.6867 2.6546C23.4085 1.60965 22.5887 0.786798 21.5479 0.507532C19.6613 0 12.0962 0 12.0962 0C12.0962 0 4.53097 0 2.64438 0.507532C1.60357 0.786798 0.783776 1.60965 0.505564 2.6546C0 4.54846 0 8.5 0 8.5C0 8.5 0 12.4514 0.505564 14.3454C0.783776 15.3903 1.60357 16.2132 2.64438 16.4926C4.53097 17 12.0962 17 12.0962 17C12.0962 17 19.6613 17 21.5479 16.4926C22.5887 16.2132 23.4085 15.3903 23.6867 14.3454C24.1923 12.4514 24.1923 8.5 24.1923 8.5C24.1923 8.5 24.1923 4.54846 23.6867 2.6546Z" fill="#DCDADC"></path>
</svg>