<svg xmlns="http://www.w3.org/2000/svg" viewBox="0 0 47.94 47.58"><defs><style>.cls-1{fill:#b4b4b4;}</style></defs><g id="Layer_2" data-name="Layer 2"><g id="Layer_1-2" data-name="Layer 1"><path class="cls-1" d="M47.94,34.6C42.69,33,37.41,31.51,32.18,29.83c-2.92-.94-4.54-.39-4.37,3,.21,4.34-1.19,9,3.26,12.36,1.29,1,.78,2.23-.88,2.27-4.16.11-8.33.21-12.47,0-3-.17-2.35-1.86-.67-3.12,4.92-3.7,2.5-8.83,2.65-13.38.07-2.24-2-1.67-3.45-1.26-3.83,1.12-7.62,2.39-11.47,3.45-1.45.4-3.35,1.93-4.41-.17S.69,29.14,2.54,28c4.09-2.56,8.07-5.3,12.31-7.58,3.83-2.06,5.67-4.76,5.16-9.18a39.6,39.6,0,0,1,.1-7.46A3.66,3.66,0,0,1,23.45,0c2.47-.24,3.76,1.44,4,3.58A70.66,70.66,0,0,1,27.76,13a6.57,6.57,0,0,0,3.54,6.54c5.6,3.26,11.1,6.69,16.64,10.05Z"/></g></g></svg>