<svg xmlns="http://www.w3.org/2000/svg" viewBox="0 0 44.67 52.18"><defs><style>.cls-1{fill:#b4b4b4;}.cls-2{fill:#f7f7f7;}.cls-3{fill:#f8f8f8;}.cls-4{fill:#fdfdfd;}.cls-5{fill:#f9f9f9;}.cls-6{fill:#fefefe;}.cls-7{fill:#fcfcfc;}</style></defs><g id="Layer_2" data-name="Layer 2"><g id="Layer_1-2" data-name="Layer 1"><path class="cls-1" d="M16.44,52.18c-4.63-3.11-10.17-5.06-13-10.43-1.87-3.53-5-8.22-2.44-10.88s7.38.4,10.85,2.32c3.78,2.08,6.22,5.41,8.26,9.1.61,1.11.75,2.9,2.29,3s1.78-1.75,2.36-2.86A22.05,22.05,0,0,1,40.29,30.28c3.59-.79,5,.19,4.13,4-1.48,6.28-4.64,11.34-10.32,14.59-2.15,1.24-4.44,2.22-6.67,3.32Z"/><path class="cls-1" d="M38.37,13.45c-2.12,4.3,2.92,10.71-2.36,14.07-4.3,2.74-8.41,6.78-13.86,7.05-5.67.28-16.57-9-15.49-13.19C7.91,16.53,3.55,10.2,9.07,7,13.49,4.43,17.33,0,23,0S38.6,8.86,38.37,13.45Z"/><path class="cls-2" d="M38.41,36.32c-2,4.61-4.25,7.11-8.46,8.55C30.83,40.21,33.77,38.37,38.41,36.32Z"/><path class="cls-3" d="M15.31,45.08C10.55,43.5,8.39,41,7,36.58,11.23,38.21,13.59,40.54,15.31,45.08Z"/><path class="cls-4" d="M25.1,8.05c-.25,2-1.71,1.67-3,1.7-1.55,0-2.64-.49-2.27-2.25a2.45,2.45,0,0,1,2.91-2A2.45,2.45,0,0,1,25.1,8.05Z"/><path class="cls-5" d="M16.63,12c-.6,1.19-.66,3-2.45,3.18-1.5.14-2.38-1-2.49-2.45A2.41,2.41,0,0,1,14.3,9.93,2.15,2.15,0,0,1,16.63,12Z"/><path class="cls-5" d="M16.64,22.68a2.2,2.2,0,0,1-2.42,1.95,2.4,2.4,0,0,1-2.51-2.87A2.06,2.06,0,0,1,14,19.69C15.69,19.83,16.18,21.31,16.64,22.68Z"/><path class="cls-5" d="M33.22,21.82A2.5,2.5,0,0,1,31,24.62c-1.43.19-2.79-.42-2.63-2,.14-1.43,1-2.9,2.72-2.92C32.38,19.64,33,20.67,33.22,21.82Z"/><path class="cls-6" d="M22.37,29.13c-1.52-.16-2.58-.89-2.49-2.5.11-1.9,1.67-1.71,3-1.77s2.37.35,2.21,1.91A2.53,2.53,0,0,1,22.37,29.13Z"/><path class="cls-7" d="M33.23,12.14c0,1.47-.57,2.49-1.87,2.7-1.92.3-2.62-1.22-3-2.64s.94-2,2.12-2.1A2.31,2.31,0,0,1,33.23,12.14Z"/></g></g></svg>