<svg xmlns="http://www.w3.org/2000/svg" viewBox="0 0 45.34 45.47"><defs><style>.cls-1{fill:#b4b4b4;}.cls-2{fill:#fff;}.cls-3{fill:#fcfcfc;}</style></defs><g id="Layer_2" data-name="Layer 2"><g id="Layer_1-2" data-name="Layer 1"><path class="cls-1" d="M22.77.07c5.83,0,11.66,0,17.48,0C42,.12,44.16-.26,45,1.89s-.16,3.9-1.53,5.46c-5,5.73-10,11.57-15.25,17.11-3.79,4-2.73,8.61-2.41,13.16.12,1.84,1.81,2.19,3.38,2.26,1.83.08,3.67,0,5.49.18s2.83.88,2.79,2.79a2.34,2.34,0,0,1-2.44,2.59q-12.48.08-25,0c-1.54,0-2.3-1.16-2.26-2.74a2.48,2.48,0,0,1,2.49-2.57c.5-.06,1,0,1.49-.13,2.6-.5,6.58,1.42,7.46-2.09,1.05-4.18,1.79-8.89-1.69-12.76Q10.11,16.76,2.7,8.34C1,6.45-.87,4.41.43,1.74,1.6-.67,4.23.14,6.29.1,11.79,0,17.28.07,22.77.07Z"/><path class="cls-2" d="M22.49,9.79c-3.47,0-7,.14-10.42-.07-1.49-.09-3.13-1.21-3-2.8.19-1.75,2.12-1.13,3.32-1.14q10.19-.11,20.37,0c1.2,0,3.18-.63,3.39,1,.24,1.88-1.59,2.89-3.29,3-3.46.18-6.95,0-10.42,0Z"/><path class="cls-3" d="M22.84,15.53c1.51.78,4.47-.89,4.32,1.72-.12,2-2,4.69-4.45,4.74s-4.43-2.77-4.48-4.65C18.14,14.36,21.31,16.43,22.84,15.53Z"/></g></g></svg>