<svg xmlns="http://www.w3.org/2000/svg" viewBox="0 0 46.04 49.66"><defs><style>.cls-1{fill:#d6d6d6;}.cls-2{fill:#b5b5b5;}.cls-3{fill:#b4b4b4;}</style></defs><g id="Layer_2" data-name="Layer 2"><g id="Layer_1-2" data-name="Layer 1"><path class="cls-1" d="M.92,20c-.31,0-.61,0-.92-.07V0L1.07.1C4.54,4.83,4.45,16,.92,20Z"/><path class="cls-2" d="M.92,20,1.07.1C4.53-.41,6,1.1,5.86,4.54c-.11,3,0,6,.07,9,0,1.32.14,2.92,1.88,3,2.14.13,2.21-1.66,2.26-3.14.1-3,0-6,.11-9,.06-2,0-4.3,2.91-4.21s2.64,2.48,2.72,4.41c.09,2.32-.09,4.65.08,7,.12,1.82-.78,4.72,2,4.84s2.1-2.8,2.21-4.61c.16-2.64,0-5.3.09-8,0-1.94.39-3.76,3-3.66C25.44.27,25.79,2,25.77,3.69c-.05,4.8,0,9.62-.39,14.4-.33,4.06-2.3,7.33-6.45,8.63-2.62.82-3.11,2.61-3.09,5q.06,7,0,13.93c0,1.82,0,3.9-2.58,4-2.94.16-3-2-3-4.09-.06-3-.1-6,0-9,.15-4.86.71-9.67-5.77-11.4C2.38,24.68,1.44,22.19.92,20Z"/><path class="cls-3" d="M45.83,24.85c0,6.62.05,13.24,0,19.86,0,2,.58,4.82-2.66,4.9-3.65.09-2.85-3-3-5.11-.13-2.81-.1-5.62,0-8.44.1-3.38,0-6.38-4.7-6.34-2.21,0-2.42-1.93-2.43-3.65q0-7.69,0-15.38A9.41,9.41,0,0,1,36.5,3.78C38.73,1.72,41.38-.59,44.35.67,47,1.79,45.72,5.12,45.78,7.48,45.93,13.27,45.83,19.06,45.83,24.85Z"/></g></g></svg>