<svg xmlns="http://www.w3.org/2000/svg" viewBox="0 0 49.66 49.68"><defs><style>.cls-1{fill:#b4b4b4;}.cls-2{fill:#b5b5b5;}.cls-3{fill:#fff;}</style></defs><g id="Layer_2" data-name="Layer 2"><g id="Layer_1-2" data-name="Layer 1"><path class="cls-1" d="M28.84,37.63c-4.15,0-8.33.27-12.46-.06-5.68-.45-7.69-4.06-4.79-8.95,2.06-3.49,1.88-6.4,0-9.76C9.88,15.67,8.47,12.29,7,9c-.92-2-1.91-3.88-4.55-4A2.24,2.24,0,0,1,0,2.41C.12.42,1.59.05,3.19.08c1.95,0,4.4-.65,5.45,1.47C10.43,5.17,13.47,5,16.68,5,25.83,5,35,5,44.13,5c6,0,6.79,1.42,3.9,6.85-.7,1.32-1.76,2.51-2.19,3.9C42.63,26.23,35.32,29.23,25.09,27.93c-2.77-.36-7.89-1.62-7.95,2.33C17.08,33.79,22,31.79,24.58,32c5,.36,10,0,15,.15,2.15.06,5.37-.78,5.44,2.66.08,3.87-3.39,2.81-5.66,2.92-3.48.17-7,0-10.48,0Z"/><path class="cls-2" d="M44.86,45.08c-.33,2.83-1.9,4.57-4.77,4.6S35.6,47.86,35.55,45c-.06-3.16,1.66-5,4.83-4.88C43.35,40.23,44.54,42.33,44.86,45.08Z"/><path class="cls-2" d="M15.1,40c3,.26,4.57,2,4.67,4.76.11,3.15-1.8,4.93-4.89,4.88s-4.35-2.05-4.33-4.89S12.26,40.34,15.1,40Z"/><path class="cls-3" d="M28.55,10c3.83,0,7.65,0,11.48,0,1.48,0,2.55.19,2,2.31-1.92,6.9-5.53,9.76-12.76,9.78h-3c-7.39,0-9.92-2.08-11.75-9.17-.67-2.57.71-2.89,2.58-2.91C20.9,10,24.73,10,28.55,10Z"/></g></g></svg>